<?xml version="1.0" encoding="UTF-8"?>
<svg version="1.1" xmlns="http://www.w3.org/2000/svg" width="363" height="352">
<path d="M0 0 C1.2375 -0.0103125 2.475 -0.020625 3.75 -0.03125 C7 0.5 7 0.5 8.89453125 2.328125 C10.26672338 5.02402191 10.66013397 7.50917898 11 10.5 C17.2653672 11.67844659 17.2653672 11.67844659 23 9.5 C26.38533589 9.02456366 27.66093559 9.26084799 30.4921875 11.2578125 C31.67167969 12.42957031 31.67167969 12.42957031 32.875 13.625 C33.67679688 14.39070313 34.47859375 15.15640625 35.3046875 15.9453125 C37 18.5 37 18.5 36.796875 21.61328125 C36.53390625 22.56589844 36.2709375 23.51851562 36 24.5 C35.17250288 28.5547359 34.93581212 31.47973467 36 35.5 C36.63808594 35.67015625 37.27617187 35.8403125 37.93359375 36.015625 C38.75988281 36.25796875 39.58617187 36.5003125 40.4375 36.75 C41.26121094 36.98203125 42.08492187 37.2140625 42.93359375 37.453125 C43.61550781 37.79859375 44.29742187 38.1440625 45 38.5 C45.62915039 40.56542969 45.62915039 40.56542969 46 42.5 C47.13953125 42.47905273 48.2790625 42.45810547 49.453125 42.43652344 C53.70966869 42.36373386 57.96615814 42.31805958 62.22314453 42.28027344 C64.06015293 42.26024627 65.89709829 42.23301618 67.73388672 42.19824219 C70.38525002 42.14932935 73.03576541 42.12694237 75.6875 42.109375 C76.49928711 42.08872986 77.31107422 42.06808472 78.14746094 42.04681396 C83.81288362 42.04462011 88.33025895 43.16857277 93 46.5 C95.28104873 49.9215731 95.25432724 51.15111723 95.26742554 55.17329407 C95.28022049 56.9460672 95.28022049 56.9460672 95.29327393 58.75465393 C95.29191437 60.70201698 95.29191437 60.70201698 95.29052734 62.6887207 C95.29651118 64.06857671 95.3033164 65.44842935 95.31088257 66.82827759 C95.32856675 70.57840107 95.33323902 74.3284333 95.33451414 78.07859445 C95.33641288 81.20970283 95.3437703 84.34078995 95.35085833 87.47189015 C95.36714984 94.86074696 95.37202667 102.24955503 95.37060547 109.63842773 C95.3694045 117.25757274 95.39049552 124.87643426 95.4220928 132.49550754 C95.44825858 139.03829636 95.45897261 145.58099263 95.45769465 152.12383336 C95.45718501 156.03088699 95.46286887 159.93768885 95.48405075 163.84469032 C95.50343791 167.5211618 95.5035548 171.19714155 95.48901749 174.87363052 C95.48593452 176.86203139 95.50260341 178.85043232 95.51989746 180.83876038 C95.44105837 192.02520461 95.44105837 192.02520461 91 196.5 C88.2234464 197.13031414 86.30671326 197.34582511 83.53125 197.296875 C82.4552655 197.30548553 82.4552655 197.30548553 81.35754395 197.31427002 C79.84461296 197.31834345 78.33157573 197.30733675 76.81884766 197.28222656 C74.50573815 197.25007975 72.19961157 197.28192015 69.88671875 197.3203125 C68.41404712 197.31634746 66.94137982 197.30865968 65.46875 197.296875 C64.78010864 197.30902039 64.09146729 197.32116577 63.38195801 197.3336792 C61.41992188 197.27636719 61.41992188 197.27636719 58 196.5 C54.96266427 192.90583963 53.46349012 190.35241308 53.75 185.625 C53.78609375 184.84382812 53.8221875 184.06265625 53.859375 183.2578125 C53.90578125 182.67773438 53.9521875 182.09765625 54 181.5 C51.36 181.5 48.72 181.5 46 181.5 C46 185.13 46 188.76 46 192.5 C43.72135417 193.41145833 41.44270833 194.32291667 39.1640625 195.234375 C36.64053845 196.71022661 35.95604475 197.77151272 35 200.5 C35.29489381 202.85915048 35.93134336 204.38175802 37.125 206.4375 C38.3104724 209.23182779 37.85473075 210.6067364 37 213.5 C34.75398966 216.68823907 32.18818849 219.25118847 29 221.5 C25.375 221.5625 25.375 221.5625 22 220.5 C17.94573152 219.52378725 17.94573152 219.52378725 13.96484375 220.19140625 C11.45699644 221.86164253 10.85999752 223.35000621 9.75 226.125 C8.88375 228.290625 8.88375 228.290625 8 230.5 C3.05 230.5 -1.9 230.5 -7 230.5 C-10 223.875 -10 223.875 -10 220.5 C-11.41433206 220.2763663 -12.83167618 220.07173524 -14.25 219.875 C-15.03890625 219.75898438 -15.8278125 219.64296875 -16.640625 219.5234375 C-19.02492846 219.31387282 -19.02492846 219.31387282 -20.984375 220.5390625 C-23.78256613 221.87308385 -25.0969362 221.51651622 -28 220.5 C-30.4921875 218.57421875 -30.4921875 218.57421875 -32.875 216.1875 C-34.07769531 215.01767578 -34.07769531 215.01767578 -35.3046875 213.82421875 C-37 211.5 -37 211.5 -36.828125 209.31640625 C-36 207.5 -36 207.5 -34.875 205.75 C-33.49670763 202.20581961 -34.38066327 199.2160204 -35 195.5 C-36.6396875 195.3453125 -36.6396875 195.3453125 -38.3125 195.1875 C-42.97252747 194.31868132 -42.97252747 194.31868132 -45 191.5 C-45.29296875 189.01953125 -45.29296875 189.01953125 -45.1875 186.3125 C-45.14689453 184.96091797 -45.14689453 184.96091797 -45.10546875 183.58203125 C-45.07066406 182.89496094 -45.03585938 182.20789063 -45 181.5 C-47.97 181.5 -50.94 181.5 -54 181.5 C-53.9175 182.86125 -53.835 184.2225 -53.75 185.625 C-53.46349012 190.35241308 -54.96266427 192.90583963 -58 196.5 C-60.7765536 197.13031414 -62.69328674 197.34582511 -65.46875 197.296875 C-66.5447345 197.30548553 -66.5447345 197.30548553 -67.64245605 197.31427002 C-69.15538704 197.31834345 -70.66842427 197.30733675 -72.18115234 197.28222656 C-74.49426185 197.25007975 -76.80038843 197.28192015 -79.11328125 197.3203125 C-80.58595288 197.31634746 -82.05862018 197.30865968 -83.53125 197.296875 C-84.21989136 197.30902039 -84.90853271 197.32116577 -85.61804199 197.3336792 C-89.10967509 197.23168693 -90.70461285 196.79830599 -93.18040466 194.29804993 C-96.34423899 189.1209352 -95.56307839 182.80773489 -95.53344727 176.95483398 C-95.54051051 175.57290732 -95.54925724 174.19098838 -95.55955505 172.80908203 C-95.58201012 169.06735804 -95.57911918 165.32605779 -95.57023358 161.58429217 C-95.56511606 158.45789038 -95.57242217 155.33156767 -95.57970566 152.20517403 C-95.59669125 144.8301528 -95.59315119 137.45533856 -95.57641602 130.08032227 C-95.55948183 122.47520209 -95.57534963 114.87065535 -95.6076389 107.26559776 C-95.63433326 100.73037772 -95.64161169 94.19533622 -95.63312382 87.66006714 C-95.6281958 83.75920982 -95.6304035 79.85869779 -95.65091133 75.95788383 C-95.6692674 72.29109308 -95.66331208 68.62512803 -95.63871193 64.95838165 C-95.63131822 62.97341129 -95.64855847 60.98839699 -95.66653442 59.00349426 C-95.57361794 50.30513569 -95.57361794 50.30513569 -92.71055603 46.28651428 C-88.91763914 43.78662123 -86.47090969 42.243855 -81.87402344 42.27294922 C-80.67323151 42.27317581 -80.67323151 42.27317581 -79.44818115 42.27340698 C-78.16672211 42.28889084 -78.16672211 42.28889084 -76.859375 42.3046875 C-75.97719299 42.3075174 -75.09501099 42.31034729 -74.18609619 42.31326294 C-71.37392501 42.32444039 -68.5620746 42.34954049 -65.75 42.375 C-63.84115044 42.38503295 -61.93229588 42.39415825 -60.0234375 42.40234375 C-55.34883511 42.42437176 -50.67447191 42.45888489 -46 42.5 C-45.89429688 41.87609375 -45.78859375 41.2521875 -45.6796875 40.609375 C-45 38.5 -45 38.5 -42.125 36.75 C-39 35.5 -39 35.5 -36 35.5 C-35.7763663 34.08566794 -35.57173524 32.66832382 -35.375 31.25 C-35.25898438 30.46109375 -35.14296875 29.6721875 -35.0234375 28.859375 C-34.81387282 26.47507154 -34.81387282 26.47507154 -36.0390625 24.515625 C-37.36167587 21.74136281 -36.9726798 20.38234474 -36 17.5 C-33.75416843 14.3120147 -31.18994133 11.74603712 -28 9.5 C-24.3125 9.4375 -24.3125 9.4375 -21 10.5 C-17.25039392 11.39276335 -14.7557611 11.46576714 -11 10.5 C-10.896875 9.5925 -10.79375 8.685 -10.6875 7.75 C-9.2540876 0.97386865 -6.77338649 -0.05644489 0 0 Z " fill="#2584CF" transform="translate(172,51.5)"/>
<path d="M0 0 C1.20090523 0.00022659 1.20090523 0.00022659 2.42607117 0.00045776 C3.28553848 0.01078033 4.1450058 0.02110291 5.03051758 0.03173828 C5.91411453 0.03456818 6.79771149 0.03739807 7.70808411 0.04031372 C10.53054337 0.05150981 13.35268545 0.07661327 16.17504883 0.10205078 C18.0884557 0.11208132 20.00186755 0.12120704 21.9152832 0.12939453 C26.60616065 0.15144727 31.29680096 0.18597316 35.98754883 0.22705078 C36.1106543 1.02900879 36.23375977 1.8309668 36.3605957 2.65722656 C36.56749023 3.50526855 36.77438477 4.35331055 36.98754883 5.22705078 C39.02657025 6.43828059 39.02657025 6.43828059 41.48754883 7.10205078 C43.94458008 8.06298828 43.94458008 8.06298828 45.98754883 9.22705078 C47.20672925 12.82042467 47.59767677 14.84409412 46.05004883 18.35205078 C45.69942383 18.97080078 45.34879883 19.58955078 44.98754883 20.22705078 C44.58864452 23.41828527 44.70213327 24.80544708 46.52661133 27.50048828 C50.55954749 31.91837199 50.55954749 31.91837199 56.05004883 33.28955078 C57.01942383 32.93892578 57.98879883 32.58830078 58.98754883 32.22705078 C65.134681 31.06121537 65.134681 31.06121537 68.23754883 31.66455078 C71.13825566 34.2544676 71.80715684 37.56783563 72.98754883 41.22705078 C78.26754883 41.22705078 83.54754883 41.22705078 88.98754883 41.22705078 C89.48254883 39.76267578 89.97754883 38.29830078 90.48754883 36.78955078 C92.36895784 32.51606461 92.36895784 32.51606461 94.89379883 31.33642578 C98.95540745 30.76052605 101.39798447 31.24660148 104.98754883 33.22705078 C108.91283563 33.33313961 111.03237652 31.60588115 113.86254883 29.10205078 C116.54737109 26.26032332 116.98754883 25.73803812 116.98754883 21.66455078 C116.49254883 19.96298828 116.49254883 19.96298828 115.98754883 18.22705078 C114.84603939 12.93459795 114.84603939 12.93459795 115.42504883 10.03955078 C117.60005962 7.51653827 120.0362412 7.0517108 123.21020508 6.23095703 C124.08999023 5.73402344 124.08999023 5.73402344 124.98754883 5.22705078 C125.62485136 2.69778925 125.62485136 2.69778925 125.98754883 0.22705078 C131.62921874 0.17764579 137.27076296 0.14132886 142.91259766 0.1171875 C144.83221632 0.10712439 146.75181964 0.09347262 148.67138672 0.07617188 C151.42915635 0.05193715 154.18672347 0.04057087 156.94458008 0.03173828 C158.23378105 0.01625443 158.23378105 0.01625443 159.54902649 0.00045776 C160.34962997 0.0003067 161.15023346 0.00015564 161.97509766 0 C162.67903152 -0.00444122 163.38296539 -0.00888245 164.10823059 -0.01345825 C165.98754883 0.22705078 165.98754883 0.22705078 168.98754883 2.22705078 C169.35669231 4.62834358 169.35669231 4.62834358 169.34831238 7.70657349 C169.35449837 9.45242737 169.35449837 9.45242737 169.36080933 11.23355103 C169.3500235 12.51676239 169.33923767 13.79997375 169.328125 15.12207031 C169.32727912 16.48195375 169.32775311 17.84183855 169.32945251 19.20172119 C169.33031543 22.89995121 169.31264214 26.59789101 169.29173064 30.29605341 C169.27301293 34.15844418 169.27121729 38.02084114 169.26765442 41.88327026 C169.25831948 49.20020687 169.23368621 56.51700946 169.20360595 63.83388698 C169.1701069 72.16265563 169.15358727 80.49143058 169.13851964 88.8202498 C169.10713781 105.95594101 169.05210779 123.09144757 168.98754883 140.22705078 C160.07754883 140.22705078 151.16754883 140.22705078 141.98754883 140.22705078 C141.98754883 137.58705078 141.98754883 134.94705078 141.98754883 132.22705078 C142.91567383 131.79392578 143.84379883 131.36080078 144.80004883 130.91455078 C148.86797204 128.76094437 150.53219611 127.59310893 151.98754883 123.22705078 C152.09152235 121.21420739 152.13614183 119.19810516 152.14868164 117.18261719 C152.15828918 115.93767487 152.16789673 114.69273254 152.17779541 113.4100647 C152.18264335 112.04958276 152.18692219 110.68909869 152.19067383 109.32861328 C152.19642787 107.93240355 152.20218557 106.53619383 152.20794678 105.13998413 C152.21844731 102.21294792 152.22429621 99.28593911 152.2277832 96.35888672 C152.23326689 92.6140356 152.25729579 88.86954825 152.28575516 85.12481117 C152.3044075 82.24055941 152.3095885 79.35639484 152.31111908 76.47208786 C152.31414015 75.09182114 152.3221503 73.71155576 152.33530426 72.33134842 C152.35241752 70.39773032 152.34863207 68.46396171 152.34399414 66.53027344 C152.34763977 65.43123688 152.3512854 64.33220032 152.3550415 63.19985962 C151.92803017 59.74557832 151.16305218 57.93825265 148.98754883 55.22705078 C145.44558404 53.48192373 142.56863694 52.9728088 138.64320374 52.95289612 C137.58481796 52.94292099 136.52643219 52.93294586 135.43597412 52.92266846 C133.70978851 52.92167145 133.70978851 52.92167145 131.94873047 52.9206543 C130.7286882 52.91233078 129.50864594 52.90400726 128.25163269 52.89543152 C124.91271912 52.87548417 121.57405469 52.86469491 118.23510289 52.85960507 C116.14734459 52.8559564 114.05961009 52.8497138 111.97186089 52.84260368 C104.68354111 52.81812974 97.39529235 52.80506112 90.10693359 52.80151367 C83.3204112 52.79787684 76.53434061 52.76796623 69.74795634 52.72610909 C63.91424867 52.69139317 58.08069072 52.67596504 52.24688047 52.67526764 C48.76566072 52.67447545 45.28490185 52.66576404 41.80378914 52.63726997 C37.92093593 52.60619582 34.03873088 52.61515525 30.15576172 52.62768555 C29.00699554 52.61285126 27.85822937 52.59801697 26.6746521 52.58273315 C20.00508988 52.57919676 20.00508988 52.57919676 14.28953552 55.63951111 C10.92882338 59.41710722 10.85216153 61.25264809 10.79467773 66.23388672 C10.77861481 67.49569763 10.76255188 68.75750854 10.7460022 70.05755615 C10.73451401 71.44217251 10.72390559 72.82679641 10.71411133 74.21142578 C10.70878765 74.90818672 10.70346397 75.60494766 10.69797897 76.32282257 C10.67124931 80.01256714 10.65187606 83.70227793 10.63745117 87.39208984 C10.6241234 90.44187492 10.59629407 93.49098905 10.55541992 96.54052734 C10.50602598 100.22578711 10.48132188 103.91043929 10.47422409 107.59601593 C10.46752268 108.99783203 10.45232917 110.39963517 10.42833328 111.8012619 C9.96874135 120.44981571 9.96874135 120.44981571 13.37573242 128.04833984 C15.55631397 129.86732561 17.33431589 131.24437192 19.98754883 132.22705078 C19.98754883 134.86705078 19.98754883 137.50705078 19.98754883 140.22705078 C11.07754883 140.22705078 2.16754883 140.22705078 -7.01245117 140.22705078 C-7.08011016 122.26862107 -7.13539902 104.31029971 -7.16788769 86.35177803 C-7.1833721 78.01376923 -7.20449154 69.67584509 -7.23876953 61.33789062 C-7.26862387 54.07251839 -7.28801472 46.80720745 -7.29471666 39.54177558 C-7.29863569 35.69295597 -7.30787826 31.84431177 -7.32964134 27.99554825 C-7.34994407 24.37585501 -7.35629771 20.75641011 -7.35177422 17.13666534 C-7.3529982 15.16892843 -7.36917275 13.20121881 -7.38571167 11.23355103 C-7.38158768 10.06964844 -7.37746368 8.90574585 -7.37321472 7.70657349 C-7.3759801 6.69075762 -7.37874548 5.67494175 -7.38159466 4.62834358 C-7.25977731 3.83591696 -7.13795996 3.04349033 -7.01245117 2.22705078 C-3.96794917 0.19738278 -3.40968789 -0.02151223 0 0 Z " fill="#F3F4F6" transform="translate(91.012451171875,100.77294921875)"/>
<path d="M0 0 C1.04458878 -0.00701431 2.08917755 -0.01402863 3.16542053 -0.02125549 C4.31098419 -0.01361176 5.45654785 -0.00596802 6.63682556 0.00190735 C7.8434938 -0.00174332 9.05016205 -0.00539398 10.293396 -0.00915527 C13.60336967 -0.0158787 16.91278254 -0.00913854 20.22270131 0.00417686 C23.68377689 0.01548516 27.14483778 0.0113844 30.60592651 0.00942993 C36.41738217 0.00854687 42.22872119 0.01963068 48.04014587 0.03804016 C54.76407344 0.05921797 61.48783025 0.06271565 68.21178442 0.0564782 C74.67510174 0.05078898 81.13835878 0.05642431 87.6016674 0.06765175 C90.35482838 0.07230261 93.10795256 0.07316951 95.86111641 0.0710659 C99.70178239 0.06883727 103.54228504 0.08327265 107.38291931 0.0995636 C109.10430115 0.09584747 109.10430115 0.09584747 110.86045837 0.09205627 C112.4231118 0.10268349 112.4231118 0.10268349 114.01733398 0.11352539 C114.92601258 0.11557826 115.83469118 0.11763113 116.77090549 0.11974621 C118.94517517 0.3742218 118.94517517 0.3742218 120.94517517 2.3742218 C121.20587158 4.91033936 121.20587158 4.91033936 121.21983337 8.15327454 C121.22936539 9.36470627 121.2388974 10.576138 121.24871826 11.82427979 C121.24735115 13.79612999 121.24735115 13.79612999 121.24595642 15.80781555 C121.24984222 17.16540661 121.25417665 18.52299646 121.25894165 19.88058472 C121.26640912 22.72786904 121.26610897 25.57502939 121.260849 28.4223175 C121.2550553 32.07214715 121.27197972 35.72146917 121.29519367 39.37121487 C121.30992243 42.17562836 121.3108039 44.97991938 121.30768394 47.7843647 C121.30844759 49.7846716 121.32232949 51.78495948 121.33636475 53.78521729 C121.33013596 54.99980118 121.32390717 56.21438507 121.31748962 57.46577454 C121.31811905 58.53673874 121.31874847 59.60770294 121.31939697 60.71112061 C120.88106206 63.83047447 120.41280738 64.50273717 117.94517517 66.3742218 C115.66347504 66.75174522 115.66347504 66.75174522 112.93504333 66.75517273 C111.90031387 66.7636322 110.86558441 66.77209167 109.79949951 66.7808075 C108.0975367 66.77169846 108.0975367 66.77169846 106.3611908 66.7624054 C105.16588242 66.76766235 103.97057404 66.77291931 102.73904419 66.77833557 C99.46007675 66.78928739 96.18147178 66.78670575 92.90250969 66.77719831 C89.47259122 66.76960797 86.04269712 66.77664558 82.61277771 66.78135681 C76.85260159 66.78681621 71.09254082 66.77961801 65.3323822 66.76533508 C58.67091264 66.74900811 52.00971852 66.7542965 45.34825563 66.7708143 C39.63097413 66.78442401 33.9137756 66.78635139 28.19648314 66.77849829 C24.78086551 66.7738189 21.36537739 66.77320411 17.94976807 66.78310776 C14.14270728 66.79069986 10.33618042 66.77914865 6.52915955 66.7624054 C5.39451767 66.76847809 4.25987579 66.77455078 3.09085083 66.7808075 C2.05612137 66.77234802 1.02139191 66.76388855 -0.04469299 66.75517273 C-1.39526669 66.75347611 -1.39526669 66.75347611 -2.77312469 66.75174522 C-5.52391274 66.29660789 -6.41434973 65.59621847 -8.05482483 63.3742218 C-8.43577576 60.7558136 -8.43577576 60.7558136 -8.44300842 57.57344055 C-8.4524649 56.3821051 -8.46192139 55.19076965 -8.47166443 53.96333313 C-8.46559174 52.67580139 -8.45951904 51.38826965 -8.45326233 50.0617218 C-8.45528338 48.72797995 -8.45819508 47.39423917 -8.46195984 46.0605011 C-8.46638179 43.26620454 -8.45995673 40.47219582 -8.44593811 37.67793274 C-8.42884577 34.09647715 -8.43868772 30.51569598 -8.4566555 26.93426514 C-8.46749714 24.18044454 -8.46404537 21.42678379 -8.45627213 18.67295837 C-8.45329812 16.71033795 -8.46240775 14.74771132 -8.47166443 12.78511047 C-8.45747971 10.9981073 -8.45747971 10.9981073 -8.44300842 9.17500305 C-8.44062164 8.12481995 -8.43823486 7.07463684 -8.43577576 5.99263 C-7.68252894 0.81530272 -4.85061738 -0.00089505 0 0 Z " fill="#98C7FE" transform="translate(116.05482482910156,159.6257781982422)"/>
<path d="M0 0 C1.98 0 3.96 0 6 0 C6.18433594 0.53109375 6.36867187 1.0621875 6.55859375 1.609375 C8.38728523 6.06325468 10.00875999 8.47361096 14.4375 10.5625 C18.02394936 11.90081498 20.31318696 12.33134915 24 11 C26.625 10.25 26.625 10.25 29 10 C30.875 11.125 30.875 11.125 32 13 C31.72695898 15.59388971 31.07178131 17.801221 30.1875 20.25 C29.8903462 24.60825578 31.76495378 28.30636842 34 32 C36.91765 33.9451 38.62537285 34.45276317 42 35 C42 37.31 42 39.62 42 42 C40.7625 42.28875 39.525 42.5775 38.25 42.875 C35.37252825 43.93808015 34.22840531 44.64728831 32.54296875 47.25 C30.05156895 53.16597409 30.00138319 56.50484117 31.75 62.625 C32 65 32 65 30.875 66.875 C29 68 29 68 26.625 67.75 C25.325625 67.37875 25.325625 67.37875 24 67 C18.96877453 65.62479837 15.95762908 66.61984128 11.25 68.609375 C7.69094863 70.80906647 7.06601647 73.04051025 6 77 C4.02 77 2.04 77 0 77 C-0.28875 75.9275 -0.5775 74.855 -0.875 73.75 C-2.41414708 70.10932518 -4.27652979 69.02078205 -7.875 67.5 C-12.7217162 65.6621015 -15.76711086 66.36203167 -20.625 67.75 C-23 68 -23 68 -24.875 66.875 C-26 65 -26 65 -25.75 62.625 C-25.27745032 60.97107613 -24.78066103 59.32370483 -24.25 57.6875 C-23.92700345 54.21528711 -24.95874472 51.93532069 -26.30859375 48.76953125 C-27 47 -27 47 -27 45 C-29.97 44.01 -32.94 43.02 -36 42 C-36 40.02 -36 38.04 -36 36 C-35.46890625 35.81566406 -34.9378125 35.63132813 -34.390625 35.44140625 C-29.93674532 33.61271477 -27.52638904 31.99124001 -25.4375 27.5625 C-24.09918502 23.97605064 -23.66865085 21.68681304 -25 18 C-25.75 15.375 -25.75 15.375 -26 13 C-24.875 11.125 -24.875 11.125 -23 10 C-20.42907807 10.27062336 -18.13627329 10.96093499 -15.65625 11.671875 C-10.80320143 12.27136924 -6.86340675 9.7701163 -3 7 C-1.35241589 4.6217908 -0.77750393 2.83233576 0 0 Z " fill="#94C5FC" transform="translate(169,59)"/>
<path d="M0 0 C1.43169777 -0.00956978 1.43169777 -0.00956978 2.89231873 -0.01933289 C4.45007774 -0.02100212 4.45007774 -0.02100212 6.03930664 -0.02270508 C7.0985585 -0.02603348 8.15781036 -0.02936188 9.24916077 -0.03279114 C11.49455327 -0.03786502 13.73995334 -0.04019932 15.98535156 -0.04003906 C19.43119667 -0.04222474 22.87672141 -0.06037354 26.32250977 -0.0793457 C28.49894096 -0.08227961 30.67537368 -0.08426443 32.85180664 -0.08520508 C34.40652931 -0.09598335 34.40652931 -0.09598335 35.99266052 -0.10697937 C36.95027786 -0.10390274 37.9078952 -0.10082611 38.89453125 -0.09765625 C39.73978867 -0.09908127 40.58504608 -0.10050629 41.45591736 -0.10197449 C43.51196289 0.14526367 43.51196289 0.14526367 45.51196289 2.14526367 C45.77075195 4.4519043 45.77075195 4.4519043 45.77758789 7.30151367 C45.78145508 8.83485352 45.78145508 8.83485352 45.78540039 10.39916992 C45.77766602 11.47038086 45.76993164 12.5415918 45.76196289 13.64526367 C45.77356445 15.25208008 45.77356445 15.25208008 45.78540039 16.89135742 C45.78282227 17.91358398 45.78024414 18.93581055 45.77758789 19.98901367 C45.77533203 20.92938477 45.77307617 21.86975586 45.77075195 22.83862305 C45.51196289 25.14526367 45.51196289 25.14526367 43.51196289 27.14526367 C41.45591736 27.39250183 41.45591736 27.39250183 38.89453125 27.38818359 C37.93691391 27.39126022 36.97929657 27.39433685 35.99266052 27.39750671 C34.95617874 27.3903212 33.91969696 27.38313568 32.85180664 27.37573242 C31.79159805 27.3752742 30.73138947 27.37481598 29.63905334 27.37434387 C27.39542524 27.37131938 25.15179927 27.36342723 22.90820312 27.35107422 C19.4602928 27.33282101 16.01265085 27.33056446 12.56469727 27.33081055 C10.38956472 27.32589543 8.214434 27.32006714 6.03930664 27.31323242 C5.00080063 27.3121196 3.96229462 27.31100677 2.89231873 27.30986023 C1.93785355 27.30348038 0.98338837 27.29710052 0 27.29052734 C-0.84446182 27.28671555 -1.68892365 27.28290375 -2.55897522 27.27897644 C-4.48803711 27.14526367 -4.48803711 27.14526367 -5.48803711 26.14526367 C-5.58763332 24.30367344 -5.61884121 22.458294 -5.62084961 20.61401367 C-5.62213867 19.49381836 -5.62342773 18.37362305 -5.62475586 17.21948242 C-5.62088867 16.03999023 -5.61702148 14.86049805 -5.61303711 13.64526367 C-5.6169043 12.46577148 -5.62077148 11.2862793 -5.62475586 10.07104492 C-5.6234668 8.95084961 -5.62217773 7.8306543 -5.62084961 6.67651367 C-5.61972168 5.64075195 -5.61859375 4.60499023 -5.61743164 3.5378418 C-5.39364254 -0.6001454 -3.69378243 0.01667329 0 0 Z " fill="#F1F4F6" transform="translate(128.488037109375,171.854736328125)"/>
<path d="M0 0 C1.08566757 -0.00099701 2.17133514 -0.00199402 3.28990173 -0.00302124 C5.57688752 0.00164446 7.86388507 0.02100888 10.15063477 0.05419922 C13.64497924 0.10146289 17.13627552 0.09530275 20.63085938 0.08203125 C22.85809105 0.09318388 25.08530992 0.10740307 27.3125 0.125 C28.87364281 0.12226578 28.87364281 0.12226578 30.46632385 0.11947632 C36.4634083 0.23637783 40.045553 0.68973971 44.58984375 4.7265625 C47.82129592 9.57374076 46.9177401 14.90491141 46.90234375 20.6015625 C46.91845703 21.78621094 46.93457031 22.97085938 46.95117188 24.19140625 C46.95181641 25.33480469 46.95246094 26.47820312 46.953125 27.65625 C46.95610596 28.70022949 46.95908691 29.74420898 46.9621582 30.81982422 C46.40497835 35.16984611 44.83780848 37.60235018 41.60546875 40.51416016 C36.91609596 42.39947632 32.34716365 42.15389944 27.33984375 42.125 C26.24897461 42.12787018 25.15810547 42.13074036 24.03417969 42.13369751 C21.7311145 42.13573617 19.42803192 42.13022023 17.125 42.11767578 C13.60247023 42.10162005 10.08108789 42.11753198 6.55859375 42.13671875 C4.31900789 42.13473628 2.07942274 42.13089254 -0.16015625 42.125 C-1.21235352 42.13107269 -2.26455078 42.13714539 -3.34863281 42.1434021 C-12.5627754 42.05489883 -12.5627754 42.05489883 -16.41015625 38.7265625 C-19.55218685 34.0135166 -18.89627268 28.99123137 -18.94555664 23.43969727 C-18.97244848 21.42959309 -19.04733247 19.42479026 -19.12304688 17.41601562 C-19.13658203 16.14048828 -19.15011719 14.86496094 -19.1640625 13.55078125 C-19.18799072 12.38635498 -19.21191895 11.22192871 -19.23657227 10.0222168 C-18.22747247 5.99804008 -16.90434455 4.36021841 -13.6466217 1.87123108 C-9.29103372 -0.35804758 -4.79677008 -0.08505909 0 0 Z M-11.41015625 8.7265625 C-11.50975246 10.56815273 -11.54096036 12.41353217 -11.54296875 14.2578125 C-11.54425781 15.37800781 -11.54554687 16.49820313 -11.546875 17.65234375 C-11.54300781 18.83183594 -11.53914063 20.01132813 -11.53515625 21.2265625 C-11.53902344 22.40605469 -11.54289062 23.58554688 -11.546875 24.80078125 C-11.54558594 25.92097656 -11.54429688 27.04117188 -11.54296875 28.1953125 C-11.54184082 29.23107422 -11.54071289 30.26683594 -11.53955078 31.33398438 C-11.67980778 33.67954073 -11.67980778 33.67954073 -10.41015625 34.7265625 C-8.91694328 34.83006444 -7.41889968 34.86506989 -5.92211914 34.87182617 C-4.96765396 34.87820602 -4.01318878 34.88458588 -3.02980042 34.89115906 C-1.9912944 34.89227188 -0.95278839 34.8933847 0.1171875 34.89453125 C1.70606529 34.89952385 1.70606529 34.89952385 3.32704163 34.90461731 C5.57243413 34.90969119 7.8178342 34.91202549 10.06323242 34.91186523 C13.50907753 34.91405091 16.95460227 34.93219971 20.40039062 34.95117188 C22.57682182 34.95410579 24.75325454 34.9560906 26.9296875 34.95703125 C27.96616928 34.96421677 29.00265106 34.97140228 30.07054138 34.97880554 C31.02815872 34.97572891 31.98577606 34.97265228 32.97241211 34.96948242 C33.81766953 34.97090744 34.66292694 34.97233246 35.53379822 34.97380066 C37.81382369 34.91433473 37.81382369 34.91433473 39.58984375 32.7265625 C39.90065712 30.33479772 39.90065712 30.33479772 39.85546875 27.5703125 C39.85804688 26.54808594 39.860625 25.52585938 39.86328125 24.47265625 C39.85167969 22.86583984 39.85167969 22.86583984 39.83984375 21.2265625 C39.84757812 20.15535156 39.8553125 19.08414063 39.86328125 17.98046875 C39.85941406 16.44712891 39.85941406 16.44712891 39.85546875 14.8828125 C39.85321289 13.94244141 39.85095703 13.00207031 39.84863281 12.03320312 C39.81083091 9.53164283 39.81083091 9.53164283 37.58984375 7.7265625 C35.4550957 7.42777539 35.4550957 7.42777539 32.97241211 7.48364258 C32.01479477 7.48056595 31.05717743 7.47748932 30.07054138 7.47431946 C29.0340596 7.48150497 27.99757782 7.48869049 26.9296875 7.49609375 C25.86947891 7.49655197 24.80927032 7.49701019 23.7169342 7.4974823 C21.47330609 7.50050679 19.22968013 7.50839894 16.98608398 7.52075195 C13.53817366 7.53900517 10.09053171 7.54126171 6.64257812 7.54101562 C4.46744558 7.54593074 2.29231486 7.55175903 0.1171875 7.55859375 C-1.44057152 7.56026299 -1.44057152 7.56026299 -3.02980042 7.56196594 C-3.98426559 7.56834579 -4.93873077 7.57472565 -5.92211914 7.58129883 C-6.76658096 7.58511063 -7.61104279 7.58892242 -8.48109436 7.59284973 C-10.41740671 7.51497347 -10.41740671 7.51497347 -11.41015625 8.7265625 Z " fill="#2484D0" transform="translate(134.41015625,164.2734375)"/>
<path d="M0 0 C4.03102721 2.5239644 7.03181985 6.10660846 9.15234375 10.34765625 C9.80925184 18.04748059 10.05158406 24.15914217 5.15234375 30.34765625 C0.44513914 35.04257051 -3.42612775 36.52947285 -10.03515625 36.78515625 C-15.79446213 36.7530531 -18.92897977 35.79699225 -23.26171875 32.05078125 C-28.73505648 26.1730097 -29.20381059 21.40544091 -29.125 13.515625 C-28.63868156 7.96063554 -25.86327604 5.15239963 -21.91015625 1.59765625 C-14.60834507 -3.76693972 -8.09149671 -3.85902151 0 0 Z " fill="#F1F4F6" transform="translate(181.84765625,80.65234375)"/>
<path d="M0 0 C6.50237145 3.82365365 10.52380626 9.02575492 13.4375 15.9375 C14.6085559 24.61602282 14.51542833 32.52626913 9.2890625 39.8828125 C6.35998889 43.13321908 3.18620541 45.69131214 -0.5625 47.9375 C-1.14515625 48.30875 -1.7278125 48.68 -2.328125 49.0625 C-8.58021281 51.51087005 -17.33962312 51.05564096 -23.625 48.875 C-29.30283068 45.68987547 -33.23163565 41.49644252 -36.5625 35.9375 C-36.93503906 35.35613281 -37.30757812 34.77476563 -37.69140625 34.17578125 C-40.06007471 28.08947171 -39.58433127 19.34994116 -37.72265625 13.1328125 C-34.57092868 6.99914739 -29.41672872 1.88751725 -23.26171875 -1.2265625 C-15.95706658 -3.48878474 -6.94995939 -3.21092349 0 0 Z M-28 11.5625 C-32.57479156 17.27164042 -32.02476514 22.79419525 -31.5625 29.9375 C-29.85157133 35.47285745 -26.10824913 38.57474101 -21.5625 41.9375 C-16.78800674 44.32474663 -9.33915625 43.78551892 -4.32421875 42.25390625 C0.69733143 39.57055017 4.63903206 35.33290381 6.4375 29.9375 C6.91076956 24.12637047 7.29747977 18.78976412 4.8125 13.4375 C-0.64698126 7.69067762 -4.96949616 4.44783376 -12.9375 3.5625 C-19.35462271 4.22634028 -23.76700972 6.71177669 -28 11.5625 Z " fill="#2484CF" transform="translate(184.5625,74.0625)"/>
<path d="M0 0 C4.29 0 8.58 0 13 0 C13.226875 1.44375 13.45375 2.8875 13.6875 4.375 C15.32545671 12.2955304 17.71799807 18.84564752 24.5625 23.5625 C31.28724702 27.6766 38.25925416 27.78134289 46 27 C52.97254732 24.79271431 57.38036711 20.21739664 61 14 C63.00153409 9.42506493 63.49027193 4.92737132 64 0 C68.29 0 72.58 0 77 0 C77 1.98 77 3.96 77 6 C76.45730469 6.1959375 75.91460937 6.391875 75.35546875 6.59375 C71.29391525 8.29155255 68.66191162 9.62348121 66.9375 13.8125 C65.55763648 18.53216058 66.20706912 22.62120736 67.75 27.25 C68 29 68 29 66.875 30.8125 C65 32 65 32 62.6875 31.75 C60.87105794 31.24308594 59.05856186 30.72184782 57.25 30.1875 C52.49974495 29.91344682 48.84417387 31.18847676 45 34 C43.36870903 36.69316906 42.77560664 38.89757345 42 42 C39.69 42 37.38 42 35 42 C34.690625 40.7625 34.38125 39.525 34.0625 38.25 C32.67351822 34.50838879 31.228114 33.13414104 27.625 31.4375 C23.997923 30.10151687 21.72400488 29.69156585 18 31 C14.875 31.75 14.875 31.75 12 32 C10.125 30.5625 10.125 30.5625 9 29 C9.350625 28.154375 9.70125 27.30875 10.0625 26.4375 C11.49697855 21.1777453 10.39346479 17.33340847 8.875 12.1875 C7.23980871 8.65530366 7.23980871 8.65530366 3.3125 7.5625 C2.219375 7.376875 1.12625 7.19125 0 7 C0 4.69 0 2.38 0 0 Z " fill="#96C6FD" transform="translate(134,233)"/>
<path d="M0 0 C12.21 0 24.42 0 37 0 C37 8.02477625 36.68262305 10.24560492 32 16 C26.68274792 20.93744836 22.15043986 21.4653785 15.0859375 21.4140625 C9.16322478 20.6193694 5.8234108 17.11750932 2.0625 12.75 C1 10 1 10 0 0 Z " fill="#F3F5F6" transform="translate(154,233)"/>
<path d="M0 0 C1.051875 -0.00773438 2.10375 -0.01546875 3.1875 -0.0234375 C6 0.375 6 0.375 7.8515625 1.5234375 C9.49952553 4.18035749 9.39782139 6.27129124 9.375 9.375 C9.38273437 10.426875 9.39046875 11.47875 9.3984375 12.5625 C9 15.375 9 15.375 7.8515625 17.22265625 C5.19875404 18.87366573 3.10335533 18.80869687 0 18.8125 C-1.5778125 18.84150391 -1.5778125 18.84150391 -3.1875 18.87109375 C-6 18.375 -6 18.375 -7.8515625 16.6953125 C-9.2383812 13.89337268 -9.40045692 11.9309725 -9.375 8.8125 C-9.38273438 7.86246094 -9.39046875 6.91242188 -9.3984375 5.93359375 C-9 3.375 -9 3.375 -7.8515625 1.55859375 C-5.19821483 -0.13753356 -3.1246219 -0.02297516 0 0 Z " fill="#2C89D1" transform="translate(198,187.625)"/>
<path d="M0 0 C2.28515625 1.15234375 2.28515625 1.15234375 4 3 C4.49609375 5.8125 4.49609375 5.8125 4.4375 9 C4.43621094 10.051875 4.43492187 11.10375 4.43359375 12.1875 C4 15 4 15 2.84765625 16.8515625 C0.19342795 18.50133654 -1.89791132 18.39780948 -5 18.375 C-6.051875 18.38273437 -7.10375 18.39046875 -8.1875 18.3984375 C-11 18 -11 18 -12.84765625 16.81640625 C-15.26432956 13.00707375 -14.54918621 8.3159575 -14 4 C-11.27298819 -1.33006853 -5.3552664 -0.9526195 0 0 Z " fill="#2D89D1" transform="translate(203,165)"/>
<path d="M0 0 C2.6875 1.375 2.6875 1.375 4 4 C4.70283028 8.5495035 4.76820695 12.4635861 2.6875 16.625 C-1.62006745 18.82887172 -6.2658602 18.80227407 -11 18 C-12.81640625 16.84765625 -12.81640625 16.84765625 -14 15 C-14.3984375 12.1875 -14.3984375 12.1875 -14.375 9 C-14.38273438 7.948125 -14.39046875 6.89625 -14.3984375 5.8125 C-14 3 -14 3 -12.81640625 1.15234375 C-9.00707375 -1.26432956 -4.3159575 -0.54918621 0 0 Z " fill="#2D89D1" transform="translate(226,188)"/>
<path d="M0 0 C1.1653125 0.00515625 2.330625 0.0103125 3.53125 0.015625 C4.6965625 0.01046875 5.861875 0.0053125 7.0625 0 C10.03125 0.265625 10.03125 0.265625 12.03125 2.265625 C12.296875 5.234375 12.296875 5.234375 12.28125 8.765625 C12.28640625 9.9309375 12.2915625 11.09625 12.296875 12.296875 C12.03125 15.265625 12.03125 15.265625 10.03125 17.265625 C7.0625 17.53125 7.0625 17.53125 3.53125 17.515625 C2.3659375 17.52078125 1.200625 17.5259375 0 17.53125 C-2.96875 17.265625 -2.96875 17.265625 -4.96875 15.265625 C-5.234375 12.296875 -5.234375 12.296875 -5.21875 8.765625 C-5.22390625 7.6003125 -5.2290625 6.435 -5.234375 5.234375 C-4.86877441 1.1482508 -4.0861242 0.36560059 0 0 Z " fill="#2A87D0" transform="translate(216.96875,165.734375)"/>
<path d="M0 0 C1.71875 0.76953125 1.71875 0.76953125 2.40234375 2.53515625 C2.71875 4.76953125 2.71875 4.76953125 1.56640625 6.62890625 C0.97730469 7.2528125 0.38820312 7.87671875 -0.21875 8.51953125 C-0.86457031 9.20402344 -1.51039063 9.88851562 -2.17578125 10.59375 C-2.87058594 11.31175781 -3.56539062 12.02976562 -4.28125 12.76953125 C-4.96574219 13.53910156 -5.65023437 14.30867188 -6.35546875 15.1015625 C-7.03222656 15.83761719 -7.70898438 16.57367188 -8.40625 17.33203125 C-9.02757812 18.01394531 -9.64890625 18.69585937 -10.2890625 19.3984375 C-12.28125 20.76953125 -12.28125 20.76953125 -14.8125 20.6875 C-18.8301313 19.19360229 -21.13102174 16.4172399 -23.28125 12.76953125 C-23.15625 9.83203125 -23.15625 9.83203125 -22.28125 7.76953125 C-19.90625 7.58203125 -19.90625 7.58203125 -17.28125 7.76953125 C-16.29125 9.25453125 -16.29125 9.25453125 -15.28125 10.76953125 C-10.59679538 8.84251696 -7.84319329 5.25125991 -4.5 1.5703125 C-2.28125 -0.23046875 -2.28125 -0.23046875 0 0 Z " fill="#2685CF" transform="translate(183.28125,87.23046875)"/>
<path d="M0 0 C3.625 0.375 3.625 0.375 7 1 C7.042721 2.66611905 7.04063832 4.33382885 7 6 C6 7 6 7 2.4375 7.0625 C1.303125 7.041875 0.16875 7.02125 -1 7 C-1.625 4.625 -1.625 4.625 -2 2 C-1.34 1.34 -0.68 0.68 0 0 Z " fill="#2484D0" transform="translate(222,213)"/>
<path d="M0 0 C3.625 0.375 3.625 0.375 7 1 C7.042721 2.66611905 7.04063832 4.33382885 7 6 C6 7 6 7 2.4375 7.0625 C1.303125 7.041875 0.16875 7.02125 -1 7 C-1.625 4.625 -1.625 4.625 -2 2 C-1.34 1.34 -0.68 0.68 0 0 Z " fill="#2484D0" transform="translate(196,213)"/>
<path d="M0 0 C3.625 0.375 3.625 0.375 7 1 C7.042721 2.66611905 7.04063832 4.33382885 7 6 C6 7 6 7 2.4375 7.0625 C1.303125 7.041875 0.16875 7.02125 -1 7 C-1.625 4.625 -1.625 4.625 -2 2 C-1.34 1.34 -0.68 0.68 0 0 Z " fill="#2484D0" transform="translate(170,213)"/>
<path d="M0 0 C3.625 0.375 3.625 0.375 7 1 C7.042721 2.66611905 7.04063832 4.33382885 7 6 C6 7 6 7 2.4375 7.0625 C1.303125 7.041875 0.16875 7.02125 -1 7 C-1.625 4.625 -1.625 4.625 -2 2 C-1.34 1.34 -0.68 0.68 0 0 Z " fill="#2484D0" transform="translate(144,213)"/>
<path d="M0 0 C3.625 0.375 3.625 0.375 7 1 C7.042721 2.66611905 7.04063832 4.33382885 7 6 C6 7 6 7 2.4375 7.0625 C1.303125 7.041875 0.16875 7.02125 -1 7 C-1.625 4.625 -1.625 4.625 -2 2 C-1.34 1.34 -0.68 0.68 0 0 Z " fill="#2484D0" transform="translate(118,213)"/>
</svg>
